<mxfile host="app.diagrams.net" modified="2023-08-16T09:12:26.305Z" agent="Mozilla/5.0 (Macintosh; Intel Mac OS X 10_15_7) AppleWebKit/537.36 (KHTML, like Gecko) Chrome/116.0.0.0 Safari/537.36" version="21.6.8" etag="8Perxy9KTNHz3Qx6aW4M" type="github">
  <diagram name="Страница — 1" id="uMBP3uglS6KfB2vWSXE3">
    <mxGraphModel>
      <root>
        <mxCell id="0" />
        <mxCell id="1" parent="0" />
      </root>
    </mxGraphModel>
  </diagram>
</mxfile>
